<mxfile host="app.diagrams.net" modified="2021-08-10T09:50:03.421Z" agent="5.0 (X11; Linux x86_64) AppleWebKit/537.36 (KHTML, like Gecko) Chrome/91.0.4472.114 Safari/537.36" etag="6GsOQCNvuHGGj-uWU7To" version="14.9.5" type="github">
  <diagram id="wFE0QG_FPsp0jaGvCLVb" name="Page-1">
    <mxGraphModel dx="663" dy="754" grid="1" gridSize="10" guides="1" tooltips="1" connect="1" arrows="1" fold="1" page="1" pageScale="1" pageWidth="850" pageHeight="1100" math="0" shadow="0">
      <root>
        <mxCell id="0" />
        <mxCell id="1" parent="0" />
        <mxCell id="Ls7vCJaHhyHk9P6Z2BkP-7" value="" style="swimlane;childLayout=stackLayout;horizontal=1;fillColor=none;horizontalStack=1;resizeParent=1;resizeParentMax=0;resizeLast=0;collapsible=0;strokeColor=none;stackBorder=10;stackSpacing=-12;resizable=1;align=center;points=[];fontColor=#000000;" vertex="1" parent="1">
          <mxGeometry x="170" y="450" width="650" height="90" as="geometry" />
        </mxCell>
        <mxCell id="Ls7vCJaHhyHk9P6Z2BkP-8" value="曝光" style="shape=step;perimeter=stepPerimeter;fixedSize=1;points=[];fontSize=15;labelBackgroundColor=none;strokeColor=#C73500;fontColor=#FFFFFF;fontStyle=1;fillColor=#EA6B66;" vertex="1" parent="Ls7vCJaHhyHk9P6Z2BkP-7">
          <mxGeometry x="10" y="33" width="100" height="47" as="geometry" />
        </mxCell>
        <mxCell id="Ls7vCJaHhyHk9P6Z2BkP-11" value=" 访问浏览" style="shape=step;perimeter=stepPerimeter;fixedSize=1;points=[];fontSize=15;labelBackgroundColor=none;strokeColor=#C73500;fontColor=#FFFFFF;fontStyle=1;fillColor=#EA6B66;" vertex="1" parent="Ls7vCJaHhyHk9P6Z2BkP-7">
          <mxGeometry x="98" y="33" width="100" height="47" as="geometry" />
        </mxCell>
        <mxCell id="Ls7vCJaHhyHk9P6Z2BkP-15" value=" 访问留存" style="shape=step;perimeter=stepPerimeter;fixedSize=1;points=[];fontSize=15;labelBackgroundColor=none;strokeColor=#C73500;fontColor=#FFFFFF;fontStyle=1;fillColor=#EA6B66;" vertex="1" parent="Ls7vCJaHhyHk9P6Z2BkP-7">
          <mxGeometry x="186" y="33" width="100" height="47" as="geometry" />
        </mxCell>
        <mxCell id="Ls7vCJaHhyHk9P6Z2BkP-16" value="新消费" style="shape=step;perimeter=stepPerimeter;fixedSize=1;points=[];fontSize=15;labelBackgroundColor=none;strokeColor=#C73500;fontColor=#FFFFFF;fontStyle=1;fillColor=#EA6B66;" vertex="1" parent="Ls7vCJaHhyHk9P6Z2BkP-7">
          <mxGeometry x="274" y="33" width="94" height="47" as="geometry" />
        </mxCell>
        <mxCell id="Ls7vCJaHhyHk9P6Z2BkP-14" value=" 支付留存" style="shape=step;perimeter=stepPerimeter;fixedSize=1;points=[];fontSize=15;labelBackgroundColor=none;strokeColor=#C73500;fontColor=#FFFFFF;fontStyle=1;fillColor=#EA6B66;" vertex="1" parent="Ls7vCJaHhyHk9P6Z2BkP-7">
          <mxGeometry x="356" y="33" width="100" height="47" as="geometry" />
        </mxCell>
        <mxCell id="Ls7vCJaHhyHk9P6Z2BkP-13" value="支付活跃" style="shape=step;perimeter=stepPerimeter;fixedSize=1;points=[];fontSize=15;labelBackgroundColor=none;strokeColor=#C73500;fontColor=#FFFFFF;fontStyle=1;fillColor=#EA6B66;" vertex="1" parent="Ls7vCJaHhyHk9P6Z2BkP-7">
          <mxGeometry x="444" y="33" width="100" height="47" as="geometry" />
        </mxCell>
        <mxCell id="Ls7vCJaHhyHk9P6Z2BkP-17" value="  高价值用户" style="shape=step;perimeter=stepPerimeter;fixedSize=1;points=[];fontSize=15;labelBackgroundColor=none;strokeColor=#666666;fontStyle=1;fillColor=#f5f5f5;gradientColor=#b3b3b3;" vertex="1" parent="Ls7vCJaHhyHk9P6Z2BkP-7">
          <mxGeometry x="532" y="33" width="108" height="47" as="geometry" />
        </mxCell>
        <mxCell id="Ls7vCJaHhyHk9P6Z2BkP-19" value="" style="rounded=0;whiteSpace=wrap;html=1;labelBackgroundColor=none;fontSize=15;fontColor=#ffffff;fillColor=#647687;strokeColor=#314354;" vertex="1" parent="1">
          <mxGeometry x="180" y="450" width="170" height="10" as="geometry" />
        </mxCell>
        <mxCell id="Ls7vCJaHhyHk9P6Z2BkP-20" value="" style="rounded=0;whiteSpace=wrap;html=1;labelBackgroundColor=none;fontSize=15;fontColor=#ffffff;fillColor=#647687;strokeColor=#314354;" vertex="1" parent="1">
          <mxGeometry x="360" y="450" width="160" height="10" as="geometry" />
        </mxCell>
        <mxCell id="Ls7vCJaHhyHk9P6Z2BkP-21" value="" style="rounded=0;whiteSpace=wrap;html=1;labelBackgroundColor=none;fontSize=15;fontColor=#ffffff;fillColor=#647687;strokeColor=#314354;" vertex="1" parent="1">
          <mxGeometry x="530" y="450" width="270" height="10" as="geometry" />
        </mxCell>
        <mxCell id="Ls7vCJaHhyHk9P6Z2BkP-22" value="&lt;font color=&quot;#ea6b66&quot;&gt;&lt;b&gt;引流&lt;/b&gt;&lt;/font&gt;" style="text;html=1;strokeColor=none;fillColor=none;align=center;verticalAlign=middle;whiteSpace=wrap;rounded=0;labelBackgroundColor=none;fontSize=15;fontColor=#FFFFFF;" vertex="1" parent="1">
          <mxGeometry x="240" y="410" width="40" height="20" as="geometry" />
        </mxCell>
        <mxCell id="Ls7vCJaHhyHk9P6Z2BkP-23" value="&lt;font color=&quot;#ea6b66&quot;&gt;&lt;b&gt;拉新&lt;/b&gt;&lt;/font&gt;" style="text;html=1;strokeColor=none;fillColor=none;align=center;verticalAlign=middle;whiteSpace=wrap;rounded=0;labelBackgroundColor=none;fontSize=15;fontColor=#FFFFFF;" vertex="1" parent="1">
          <mxGeometry x="420" y="410" width="40" height="20" as="geometry" />
        </mxCell>
        <mxCell id="Ls7vCJaHhyHk9P6Z2BkP-24" value="&lt;font color=&quot;#ea6b66&quot;&gt;&lt;b&gt;支付&lt;/b&gt;&lt;/font&gt;" style="text;html=1;strokeColor=none;fillColor=none;align=center;verticalAlign=middle;whiteSpace=wrap;rounded=0;labelBackgroundColor=none;fontSize=15;fontColor=#FFFFFF;" vertex="1" parent="1">
          <mxGeometry x="645" y="410" width="40" height="20" as="geometry" />
        </mxCell>
        <mxCell id="Ls7vCJaHhyHk9P6Z2BkP-27" value="" style="shape=flexArrow;endArrow=classic;html=1;fontSize=15;fontColor=#FFFFFF;exitX=0.39;exitY=1;exitDx=0;exitDy=0;exitPerimeter=0;" edge="1" parent="1" source="Ls7vCJaHhyHk9P6Z2BkP-8" target="Ls7vCJaHhyHk9P6Z2BkP-28">
          <mxGeometry width="50" height="50" relative="1" as="geometry">
            <mxPoint x="210" y="540" as="sourcePoint" />
            <mxPoint x="270" y="610" as="targetPoint" />
            <Array as="points">
              <mxPoint x="240" y="550" />
              <mxPoint x="260" y="570" />
              <mxPoint x="270" y="580" />
            </Array>
          </mxGeometry>
        </mxCell>
        <mxCell id="Ls7vCJaHhyHk9P6Z2BkP-28" value="&lt;b&gt;潜客流失&lt;/b&gt;" style="rounded=1;whiteSpace=wrap;html=1;labelBackgroundColor=none;fontSize=15;fontColor=#ffffff;fillColor=#647687;strokeColor=#314354;" vertex="1" parent="1">
          <mxGeometry x="230" y="610" width="100" height="30" as="geometry" />
        </mxCell>
        <mxCell id="Ls7vCJaHhyHk9P6Z2BkP-31" value="" style="endArrow=classic;html=1;fontSize=15;fontColor=#FFFFFF;exitX=0.5;exitY=0;exitDx=0;exitDy=0;entryX=0.48;entryY=1.106;entryDx=0;entryDy=0;entryPerimeter=0;strokeWidth=2;fillColor=#e51400;strokeColor=#B20000;" edge="1" parent="1" source="Ls7vCJaHhyHk9P6Z2BkP-28" target="Ls7vCJaHhyHk9P6Z2BkP-11">
          <mxGeometry width="50" height="50" relative="1" as="geometry">
            <mxPoint x="460" y="630" as="sourcePoint" />
            <mxPoint x="510" y="580" as="targetPoint" />
            <Array as="points">
              <mxPoint x="316" y="590" />
              <mxPoint x="316" y="580" />
            </Array>
          </mxGeometry>
        </mxCell>
        <mxCell id="Ls7vCJaHhyHk9P6Z2BkP-32" value="" style="shape=flexArrow;endArrow=classic;html=1;fontSize=15;fontColor=#FFFFFF;exitX=0.39;exitY=1;exitDx=0;exitDy=0;exitPerimeter=0;" edge="1" parent="1" target="Ls7vCJaHhyHk9P6Z2BkP-33">
          <mxGeometry width="50" height="50" relative="1" as="geometry">
            <mxPoint x="400" y="530" as="sourcePoint" />
            <mxPoint x="451" y="610" as="targetPoint" />
            <Array as="points">
              <mxPoint x="421" y="550" />
              <mxPoint x="441" y="570" />
              <mxPoint x="451" y="580" />
            </Array>
          </mxGeometry>
        </mxCell>
        <mxCell id="Ls7vCJaHhyHk9P6Z2BkP-33" value="&lt;b&gt;新客流失&lt;/b&gt;" style="rounded=1;whiteSpace=wrap;html=1;labelBackgroundColor=none;fontSize=15;fontColor=#ffffff;fillColor=#647687;strokeColor=#314354;" vertex="1" parent="1">
          <mxGeometry x="411" y="610" width="100" height="30" as="geometry" />
        </mxCell>
        <mxCell id="Ls7vCJaHhyHk9P6Z2BkP-34" value="" style="endArrow=classic;html=1;fontSize=15;fontColor=#FFFFFF;exitX=0.5;exitY=0;exitDx=0;exitDy=0;entryX=0.48;entryY=1.106;entryDx=0;entryDy=0;entryPerimeter=0;strokeWidth=2;fillColor=#e51400;strokeColor=#B20000;" edge="1" parent="1" source="Ls7vCJaHhyHk9P6Z2BkP-33">
          <mxGeometry width="50" height="50" relative="1" as="geometry">
            <mxPoint x="641" y="630" as="sourcePoint" />
            <mxPoint x="497" y="534.982" as="targetPoint" />
            <Array as="points">
              <mxPoint x="497" y="590" />
              <mxPoint x="497" y="580" />
            </Array>
          </mxGeometry>
        </mxCell>
        <mxCell id="Ls7vCJaHhyHk9P6Z2BkP-35" value="" style="shape=flexArrow;endArrow=classic;html=1;fontSize=15;fontColor=#FFFFFF;exitX=0.39;exitY=1;exitDx=0;exitDy=0;exitPerimeter=0;" edge="1" parent="1" target="Ls7vCJaHhyHk9P6Z2BkP-36">
          <mxGeometry width="50" height="50" relative="1" as="geometry">
            <mxPoint x="570" y="530" as="sourcePoint" />
            <mxPoint x="621" y="610" as="targetPoint" />
            <Array as="points">
              <mxPoint x="591" y="550" />
              <mxPoint x="611" y="570" />
              <mxPoint x="621" y="580" />
            </Array>
          </mxGeometry>
        </mxCell>
        <mxCell id="Ls7vCJaHhyHk9P6Z2BkP-36" value="&lt;b&gt;老客流失&lt;/b&gt;" style="rounded=1;whiteSpace=wrap;html=1;labelBackgroundColor=none;fontSize=15;fontColor=#ffffff;fillColor=#647687;strokeColor=#314354;" vertex="1" parent="1">
          <mxGeometry x="581" y="610" width="100" height="30" as="geometry" />
        </mxCell>
        <mxCell id="Ls7vCJaHhyHk9P6Z2BkP-37" value="" style="endArrow=classic;html=1;fontSize=15;fontColor=#FFFFFF;exitX=0.5;exitY=0;exitDx=0;exitDy=0;entryX=0.48;entryY=1.106;entryDx=0;entryDy=0;entryPerimeter=0;strokeWidth=2;fillColor=#e51400;strokeColor=#B20000;" edge="1" parent="1" source="Ls7vCJaHhyHk9P6Z2BkP-36">
          <mxGeometry width="50" height="50" relative="1" as="geometry">
            <mxPoint x="811" y="630" as="sourcePoint" />
            <mxPoint x="667" y="534.982" as="targetPoint" />
            <Array as="points">
              <mxPoint x="667" y="590" />
              <mxPoint x="667" y="580" />
            </Array>
          </mxGeometry>
        </mxCell>
        <mxCell id="Ls7vCJaHhyHk9P6Z2BkP-38" value="&lt;font style=&quot;font-size: 14px&quot;&gt;支&lt;br&gt;付&lt;br&gt;路&lt;br&gt;径&lt;/font&gt;" style="html=1;dashed=0;whitespace=wrap;shape=partialRectangle;right=0;left=0;labelBackgroundColor=none;fontSize=15;fontColor=#ffffff;fillColor=#e51400;direction=south;strokeColor=#B20000;" vertex="1" parent="1">
          <mxGeometry x="130" y="480" width="30" height="160" as="geometry" />
        </mxCell>
      </root>
    </mxGraphModel>
  </diagram>
</mxfile>
